# xmcd
#
# Track frame offsets:
#	150
#	25407
#	41703
#	62301
#	80287
#	87735
#	101573
#	122104
#	146098
#	167174
#
# Disc length: 2593 seconds
# Revision: 0
# Processed by: cddbd v1.5.2PL0 Copyright (c) Steve Scherf et al.
# Submitted via: dBpowerAMP V12.0
#
DISCID=850a1f0a
DTITLE=Centaurus-A - Side Effects Expected
DYEAR=2009
DGENRE=Metal
TTITLE0=The Praying Mantis
TTITLE1=Narcotic
TTITLE2=Drop Off
TTITLE3=Morning Tremble
TTITLE4=The Ease
TTITLE5=Incident/Accident
TTITLE6=Arson
TTITLE7=Dripping Red Canvas
TTITLE8=Selfmade Cage
TTITLE9=Resistance Ain't Futile
EXTD=
EXTT0=
EXTT1=
EXTT2=
EXTT3=
EXTT4=
EXTT5=
EXTT6=
EXTT7=
EXTT8=
EXTT9=
PLAYORDER=
